<?xml version="1.0" encoding="utf-8"?>
<!-- Generator: Adobe Illustrator 18.0.0, SVG Export Plug-In . SVG Version: 6.00 Build 0)  -->
<!DOCTYPE svg PUBLIC "-//W3C//DTD SVG 1.1//EN" "http://www.w3.org/Graphics/SVG/1.1/DTD/svg11.dtd">
<svg version="1.1" id="Warstwa_1" xmlns="http://www.w3.org/2000/svg" xmlns:xlink="http://www.w3.org/1999/xlink" x="0px" y="0px"
	 viewBox="0 0 281 74" enable-background="new 0 0 281 74" xml:space="preserve">
<g>
	<g>
		<g>
			<polygon fill="#A99A8D" points="1.5,64.6 5.7,60.3 15.6,73.5 17.5,73.5 17.2,73.1 6.7,59.3 16.2,49.7 14.2,49.7 1.5,62.5 
				1.5,49.7 0,49.7 0,73.5 1.5,73.5 			"/>
			<polygon fill="#A99A8D" points="20.1,49.7 18.6,49.7 18.6,73.5 32.5,73.5 32.5,73.2 32.5,72 20.1,72 			"/>
			<polygon fill="#A99A8D" points="36.4,73.2 36.4,49.7 34.9,49.7 34.9,73.5 36.4,73.5 			"/>
			<polygon fill="#A99A8D" points="42.7,52.5 57,73.5 58.4,73.5 58.4,73.2 58.4,49.7 56.9,49.7 56.9,70.6 42.6,49.7 41.2,49.7 
				41.2,73.5 42.7,73.5 			"/>
			<polygon fill="#A99A8D" points="64.7,73.2 64.7,49.7 63.1,49.7 63.1,73.5 64.7,73.5 			"/>
			<path fill="#A99A8D" d="M70.9,64.6l4.2-4.2L85,73.5h0.9l0,0h1.6l3.1-8h10.6l3,8h1.6l-0.1-0.3l-8.9-23.5h-1.5l-8.9,22.9L76.1,59.3
				l9.5-9.6h-2L70.9,62.5V49.7h-1.5v23.8h1.5V64.6z M91.1,64.1l4.8-12.3l4.7,12.3H91.1z"/>
		</g>
		<g>
			<path fill="#A99A8D" d="M123.3,49.7h-1.5l-9.2,23.8h1.6l3-7.9h10.6l3,7.9h1.6l-0.1-0.3L123.3,49.7z M127.2,64.1h-9.4l4.8-12.3
				L127.2,64.1z"/>
			<polygon fill="#A99A8D" points="144,71.2 135.8,49.7 133.9,49.7 133.9,73.4 135.3,73.4 135.3,52.5 143.3,73.4 144.6,73.4 
				152.7,52.5 152.7,73.4 154.1,73.4 154.1,73.2 154.1,49.7 152.2,49.7 			"/>
			<path fill="#A99A8D" d="M170.5,60.9c2.3-1,3.5-2.8,3.5-5.3c0-2.3-0.9-4-2.6-5c-1.2-0.7-3.2-1-6.1-1h-6.6v23.8h7.3
				c3,0,5.2-0.4,6.5-1.2c1.8-1.1,2.8-2.9,2.8-5.3C175.2,63.8,173.6,61.7,170.5,60.9z M160.2,61.7h5.6c2.8,0,4.8,0.4,6,1.2
				c1.2,0.8,1.8,2,1.8,3.9c0,2.4-0.9,3.9-2.7,4.7c-0.9,0.4-2.6,0.6-5.2,0.6h-5.6V61.7z M165.4,60.4h-5.2v-9.4h5.1
				c2.6,0,4.4,0.3,5.5,0.9c1.1,0.7,1.7,1.8,1.7,3.6C172.4,58.8,170.2,60.4,165.4,60.4z"/>
			<path fill="#A99A8D" d="M193.9,70.3c-0.1-1.5-0.2-3.1-0.3-4.6c-0.2-2.1-1.2-3.5-2.8-4c2.4-1,3.7-2.9,3.7-5.7c0-2.2-0.7-3.9-2-4.9
				c-1.3-1-3.4-1.4-6.2-1.4h-8v23.8h1.5v-11h7c2.3,0,3.7,0.5,4.4,1.3c0.4,0.5,0.7,1.1,0.8,2c0.1,0.4,0.1,1.3,0.2,2.8
				c0.1,1.7,0.2,2.7,0.2,3c0.1,0.8,0.3,1.5,0.6,1.9l0.1,0.1h1.7l-0.3-0.4C194.3,72.6,194,71.7,193.9,70.3z M193,56.1
				c0,3.3-1.9,4.9-6.1,4.9h-7v-9.9h6.5c1.5,0,2.5,0.1,3.2,0.2c0.9,0.2,1.6,0.6,2.2,1.2C192.6,53.4,193,54.6,193,56.1z"/>
			<path fill="#A99A8D" d="M207.8,49.1c-3.3,0-5.9,1.1-7.7,3.3c-1.9,2.2-2.8,5.3-2.8,9.1c0,3.8,0.9,6.9,2.8,9.1
				c1.9,2.2,4.5,3.3,7.7,3.3c0,0,0,0,0,0c3.2,0,5.8-1.1,7.7-3.3c1.9-2.2,2.8-5.2,2.8-9.1c0-3.8-0.9-6.9-2.8-9.1
				C213.7,50.3,211.1,49.1,207.8,49.1z M207.8,72.5c-2.8,0-5-1-6.6-2.9c-1.6-1.9-2.4-4.6-2.4-8.1c0-3.5,0.8-6.2,2.4-8.1
				c1.6-1.9,3.8-2.9,6.6-2.9c2.8,0,5,1,6.6,2.9c1.6,1.9,2.4,4.6,2.4,8.1c0,3.5-0.8,6.2-2.4,8.1C212.8,71.6,210.6,72.5,207.8,72.5z"
				/>
			<polygon fill="#A99A8D" points="236.2,51.1 236.2,49.7 220.9,49.7 220.9,51.1 234.4,51.1 219.6,72.1 219.6,73.4 236.6,73.4 
				236.6,73.2 236.6,72 221.4,72 			"/>
			<polygon fill="#A99A8D" points="239,73.4 240.5,73.4 240.5,73.2 240.5,49.7 239,49.7 			"/>
			<path fill="#A99A8D" d="M253,49.7h-1.5l-9.2,23.8h1.6l3-8h10.6l3,8h1.6l-0.1-0.3L253,49.7z M256.9,64.1h-9.4l4.8-12.3L256.9,64.1
				z"/>
			<polygon fill="#A99A8D" points="280.7,73.1 270.2,59.3 279.7,49.7 277.7,49.7 265,62.5 265,49.7 263.5,49.7 263.5,73.4 265,73.4 
				265,64.6 269.2,60.3 279.1,73.4 281,73.4 			"/>
		</g>
	</g>
	
		<radialGradient id="SVGID_1_" cx="156.6138" cy="18.7059" r="21.7568" gradientTransform="matrix(1.0061 0 0 0.9953 -17.0691 2.0229)" gradientUnits="userSpaceOnUse">
		<stop  offset="0.2123" style="stop-color:#CBC7C0"/>
		<stop  offset="0.9858" style="stop-color:#A99A8D"/>
	</radialGradient>
	<path fill="url(#SVGID_1_)" d="M163.4,13.4C163.4,4.6,156,0,149.1,0c-3,0-5.9,0.5-8.6,1.4c-2.7-0.9-5.6-1.4-8.6-1.4
		c-6.8,0-14.3,4.6-14.3,13.4c0,2.9,0.8,5.3,2.1,7.2c-1.3,2-2.1,4.4-2.1,7.2c0,8.8,7.5,13.4,14.3,13.4c3,0,5.9-0.5,8.6-1.4
		c2.7,0.9,5.6,1.4,8.6,1.4c6.9,0,14.3-4.6,14.3-13.4c0-2.9-0.8-5.3-2.1-7.2C162.6,18.7,163.4,16.3,163.4,13.4z M149.2,13.4
		c0,0.3,0,0.7-0.1,1.1c-3,0-5.9,0.5-8.6,1.4c-2.7-0.9-5.6-1.4-8.5-1.4c-0.1-0.4-0.1-0.7-0.1-1.1c0-3.1,3.7-6.7,8.7-8.6
		C145.5,6.8,149.2,10.3,149.2,13.4z M146.9,18.9c-0.4,0.4-1.1,0.6-1.7,0c-0.5-0.5-0.4-1.3,0-1.7c0.7-0.7,1.8-0.8,2.1-0.5
		C147.8,17.1,147.6,18.2,146.9,18.9z M147.4,24.5c-0.4,0.4-1.5,0.2-2.1-0.5c-0.4-0.4-0.6-1.1,0-1.7c0.5-0.5,1.3-0.4,1.7,0
		C147.6,23.1,147.8,24.2,147.4,24.5z M142.6,22.7c-0.3,0.3-0.7,0.4-1.1,0.3c-0.2,0.3-0.5,0.6-1,0.6c-0.5,0-0.8-0.2-1-0.6
		c-0.4,0.1-0.8,0-1.1-0.3c-0.3-0.3-0.4-0.7-0.3-1.1c-0.3-0.2-0.6-0.5-0.6-1c0-0.5,0.2-0.8,0.6-1c-0.1-0.4,0-0.8,0.3-1.1
		c0.3-0.3,0.7-0.4,1.1-0.3c0.2-0.3,0.5-0.6,1-0.6c0.5,0,0.8,0.2,1,0.6c0.4-0.1,0.8,0,1.1,0.3c0.3,0.3,0.4,0.7,0.3,1.1
		c0.3,0.2,0.6,0.5,0.6,1c0,0.5-0.2,0.8-0.6,1C143,22,142.9,22.4,142.6,22.7z M135.8,18.9c-0.5,0.5-1.3,0.4-1.7,0
		c-0.7-0.7-0.9-1.7-0.5-2.1c0.4-0.4,1.5-0.2,2.1,0.5C136.2,17.7,136.3,18.4,135.8,18.9z M135.7,24c-0.7,0.7-1.8,0.8-2.1,0.5
		c-0.4-0.4-0.2-1.4,0.5-2.1c0.4-0.4,1.1-0.6,1.7,0C136.3,22.9,136.2,23.6,135.7,24z M132.8,3.3c1,0,2,0.1,3,0.2
		c-4.9,2.7-8.3,6.5-8.3,9.9c0,0.5,0.1,1.1,0.2,1.6c-1.8,0.5-3.5,1.3-5,2.4c-0.5-1.2-0.8-2.5-0.8-4C121.9,6.7,127.6,3.3,132.8,3.3z
		 M131.8,20.6c-0.9,0.8-1.7,1.6-2.4,2.5c-1.6-0.5-3.2-1.3-4.4-2.5c1.3-1.2,2.8-2,4.4-2.5C130.1,19,130.9,19.9,131.8,20.6z M132.8,38
		c-5.2,0-10.8-3.5-10.8-10.2c0-1.5,0.3-2.9,0.8-4c1.5,1.1,3.2,1.9,5,2.4c-0.2,0.5-0.2,1.1-0.2,1.6c0,3.4,3.4,7.2,8.3,9.9
		C134.8,37.9,133.8,38,132.8,38z M131.8,27.9c0-0.3,0-0.7,0.1-1.1c3,0,5.9-0.5,8.5-1.4c2.7,0.9,5.6,1.4,8.5,1.4
		c0.1,0.4,0.1,0.7,0.1,1.1c0,3.1-3.7,6.7-8.7,8.6C135.5,34.5,131.8,31,131.8,27.9z M148.2,38c-1,0-2-0.1-3-0.2
		c4.9-2.7,8.3-6.5,8.3-9.9c0-0.5-0.1-1.1-0.2-1.6c1.8-0.5,3.5-1.3,5-2.4c0.5,1.2,0.8,2.5,0.8,4C159.1,34.5,153.4,38,148.2,38z
		 M149.2,20.6c0.9-0.8,1.7-1.6,2.4-2.5c1.6,0.5,3.2,1.3,4.4,2.5c-1.3,1.2-2.8,2-4.4,2.5C150.9,22.3,150.1,21.4,149.2,20.6z
		 M158.3,17.4c-1.5-1.1-3.2-1.9-5-2.4c0.2-0.5,0.2-1.1,0.2-1.6c0-3.4-3.4-7.2-8.3-9.9c1-0.2,2-0.2,3-0.2c5.2,0,10.8,3.5,10.8,10.2
		C159.1,14.9,158.8,16.3,158.3,17.4z"/>
</g>
</svg>
