<?xml version="1.0" encoding="utf-8"?>
<!-- Generator: Adobe Illustrator 18.0.0, SVG Export Plug-In . SVG Version: 6.00 Build 0)  -->
<!DOCTYPE svg PUBLIC "-//W3C//DTD SVG 1.1//EN" "http://www.w3.org/Graphics/SVG/1.1/DTD/svg11.dtd">
<svg version="1.1" id="Warstwa_1" xmlns="http://www.w3.org/2000/svg" xmlns:xlink="http://www.w3.org/1999/xlink" x="0px" y="0px"
	 viewBox="0 0 55 17" enable-background="new 0 0 55 17" xml:space="preserve">
<g>
	<path d="M30.1,0.4l6,8.1l-6,8.1h4.6l3.7-5l3.7,5h4.6l-12-16.2H30.1z M55,0.4h-4.6l-3.7,5l-3.7-5h-4.6l12,16.2H55l-6-8.1L55,0.4z
		 M12.6,5.9c0-2.5-1.7-4.7-4-5.5C7.9,0.2,7.2,0,6.5,0v0H0v1.8c0,0,0,10.9,0,14.8h3.8l0-4.8h2.6c0.1,0,0.1,0,0.2,0l3.5,4.8h4.6
		l-4.5-6.1C11.7,9.4,12.6,7.7,12.6,5.9z M7.3,8.1C7,8.1,6.7,8.2,6.4,8.2H3.8V3.6h2.6c1.3,0,2.4,1,2.4,2.3C8.8,6.9,8.2,7.7,7.3,8.1z
		 M25.3,0.4C24.5,0.1,23.6,0,22.7,0s-1.8,0.1-2.6,0.4c-3.6,1.1-6.3,4.3-6.3,8.1c0,3.8,2.7,7.1,6.3,8.1c0.8,0.2,1.7,0.4,2.6,0.4
		c0.9,0,1.8-0.1,2.6-0.4c3.6-1.1,6.3-4.3,6.3-8.1C31.6,4.7,29,1.4,25.3,0.4z M22.7,13.4c-2.8,0-5.1-2.2-5.1-4.9
		c0-2.7,2.3-4.9,5.1-4.9c2.8,0,5.1,2.2,5.1,4.9C27.8,11.2,25.5,13.4,22.7,13.4z"/>
</g>
</svg>
