<?xml version="1.0" encoding="utf-8"?>
<!-- Generator: Adobe Illustrator 18.0.0, SVG Export Plug-In . SVG Version: 6.00 Build 0)  -->
<!DOCTYPE svg PUBLIC "-//W3C//DTD SVG 1.1//EN" "http://www.w3.org/Graphics/SVG/1.1/DTD/svg11.dtd">
<svg version="1.1" id="Warstwa_1" xmlns="http://www.w3.org/2000/svg" xmlns:xlink="http://www.w3.org/1999/xlink" x="0px" y="0px"
	 viewBox="0 0 538.9 146.2" enable-background="new 0 0 538.9 146.2" xml:space="preserve">
<g>
	<defs>
		<path id="SVGID_1_" d="M253,52.8c0-0.7,0.1-1.3,0.3-2c5.6,0,11.1-1,16.2-2.7c5.1,1.7,10.6,2.7,16.2,2.7c0.2,0.7,0.3,1.4,0.3,2
			c0,5.9-7,12.6-16.5,16.4C260,65.5,253,58.7,253,52.8 M234.2,52.8c0-2.9,0.5-5.4,1.5-7.7c2.8,2.1,6.1,3.6,9.5,4.6
			c-0.3,1-0.5,2.1-0.5,3.1c0,6.4,6.4,13.7,15.8,18.9c-1.9,0.3-3.8,0.5-5.8,0.5C244.9,72.1,234.2,65.5,234.2,52.8 M278.4,71.7
			c9.4-5.1,15.8-12.4,15.8-18.8c0-1-0.2-2.1-0.5-3.1c3.4-0.9,6.7-2.5,9.5-4.6c1,2.2,1.5,4.8,1.5,7.6c0,12.7-10.8,19.3-20.6,19.3
			C282.2,72.1,280.3,72,278.4,71.7 M278.5,45.6c-0.8-0.8-1.1-2.2-0.1-3.2c1-1,2.4-0.7,3.2,0.1c1.3,1.3,1.6,3.3,0.9,4
			c-0.2,0.2-0.6,0.3-1.1,0.3C280.5,46.8,279.3,46.4,278.5,45.6 M256.4,46.5c-0.7-0.7-0.3-2.7,0.9-4c0.8-0.8,2.2-1.1,3.2-0.1
			c1,1,0.7,2.4-0.1,3.2c-0.8,0.8-2,1.3-2.9,1.3C257,46.8,256.6,46.7,256.4,46.5 M286,39.1c1.8-1.5,3.3-3.1,4.5-4.7
			c3.1,0.9,6,2.5,8.4,4.7c-2.4,2.2-5.3,3.8-8.4,4.7C289.2,42.2,287.7,40.6,286,39.1 M240,39.1c2.4-2.2,5.3-3.8,8.4-4.7
			c1.2,1.6,2.8,3.2,4.5,4.7c-1.8,1.5-3.3,3.1-4.6,4.7C245.3,42.9,242.4,41.3,240,39.1 M269.5,33.6c0.9,0,1.5,0.5,1.9,1.1
			c0.7-0.2,1.5-0.1,2.1,0.6c0.6,0.6,0.8,1.4,0.6,2.1c0.6,0.3,1.1,1,1.1,1.9c0,0.9-0.5,1.5-1.1,1.9c0.2,0.7,0.1,1.4-0.6,2.1
			c-0.6,0.6-1.4,0.7-2.1,0.6c-0.4,0.6-1,1.1-1.9,1.1c-0.9,0-1.5-0.5-1.9-1.1c-0.7,0.2-1.5,0.1-2.1-0.6c-0.6-0.6-0.8-1.4-0.6-2.1
			c-0.6-0.3-1.1-1-1.1-1.9c0-0.9,0.5-1.5,1.1-1.9c-0.2-0.7-0.1-1.4,0.6-2.1c0.6-0.6,1.4-0.7,2.1-0.6C267.9,34,268.6,33.6,269.5,33.6
			 M278.4,35.9c-1-1-0.7-2.4,0.1-3.2c1.3-1.3,3.4-1.6,4-0.9c0.7,0.7,0.3,2.7-0.9,4c-0.4,0.4-1.1,0.7-1.7,0.7
			C279.4,36.5,278.8,36.3,278.4,35.9 M257.3,35.8c-1.3-1.3-1.6-3.3-0.9-4c0.7-0.7,2.8-0.3,4,0.9c0.8,0.8,1.1,2.2,0.1,3.2
			c-0.5,0.5-1,0.6-1.5,0.6C258.4,36.5,257.7,36.2,257.3,35.8 M253.2,27.4c-0.2-0.7-0.3-1.4-0.3-2c0-5.9,7-12.6,16.5-16.4
			c9.5,3.8,16.5,10.5,16.5,16.4c0,0.7-0.1,1.3-0.3,2c-5.6,0-11.1,1-16.2,2.7C264.4,28.4,258.8,27.4,253.2,27.4 M234.2,25.4
			c0-12.7,10.7-19.3,20.6-19.3c1.9,0,3.9,0.2,5.7,0.4c-9.4,5.1-15.8,12.4-15.8,18.8c0,1,0.2,2,0.5,3.1c-3.4,0.9-6.7,2.5-9.5,4.6
			C234.7,30.8,234.2,28.3,234.2,25.4 M293.7,28.5c0.3-1,0.5-2.1,0.5-3.1c0-6.4-6.4-13.7-15.8-18.9c1.9-0.3,3.8-0.4,5.8-0.4
			c9.8,0,20.6,6.6,20.6,19.3c0,2.9-0.5,5.4-1.5,7.6C300.4,30.9,297.1,29.4,293.7,28.5 M253.1,0c-13,0-27.1,8.7-27.1,25.4
			c0,5.4,1.5,10,3.9,13.7c-2.5,3.7-3.9,8.3-3.9,13.7c0,16.7,14.1,25.4,27.1,25.4c5.6,0,11.2-1,16.4-2.7c5.1,1.7,10.7,2.7,16.3,2.7
			c13,0,27.1-8.7,27.1-25.4c0-5.4-1.5-10-3.9-13.7c2.5-3.7,3.9-8.3,3.9-13.7C312.9,8.7,298.8,0,285.8,0c-5.6,0-11.2,1-16.3,2.7
			C264.3,1,258.8,0,253.1,0z"/>
	</defs>
	<clipPath id="SVGID_2_">
		<use xlink:href="#SVGID_1_"  overflow="visible"/>
	</clipPath>
	
		<radialGradient id="SVGID_3_" cx="-1.836017e-06" cy="146.236" r="1" gradientTransform="matrix(41.5541 0 0 -41.108 269.446 6050.5908)" gradientUnits="userSpaceOnUse">
		<stop  offset="0" style="stop-color:#D6D1CB"/>
		<stop  offset="0.2123" style="stop-color:#D6D1CB"/>
		<stop  offset="0.9858" style="stop-color:#B4A698"/>
		<stop  offset="1" style="stop-color:#B4A698"/>
	</radialGradient>
	<rect x="226" y="0" clip-path="url(#SVGID_2_)" fill="url(#SVGID_3_)" width="86.9" height="78.2"/>
</g>
<g>
	<defs>
		<rect id="SVGID_4_" width="538.9" height="146.2"/>
	</defs>
	<clipPath id="SVGID_5_">
		<use xlink:href="#SVGID_4_"  overflow="visible"/>
	</clipPath>
	<path clip-path="url(#SVGID_5_)" fill="#B4A698" d="M239.6,100.1h-2.9l-17.5,45.2h3l5.8-15.1h20l5.7,15.1h2.9l-0.2-0.6L239.6,100.1
		z M247,127.4h-17.9l9.1-23.3L247,127.4z"/>
	<polygon clip-path="url(#SVGID_5_)" fill="#B4A698" points="278.8,141 263.3,100.1 259.6,100.1 259.6,145.2 262.3,145.2 
		262.3,105.4 277.5,145.2 280,145.2 295.3,105.4 295.3,145.2 298,145.2 298,144.8 298,100.1 294.3,100.1 	"/>
	<path clip-path="url(#SVGID_5_)" fill="#B4A698" d="M329.2,121.5c4.3-2,6.6-5.4,6.6-10c0-4.3-1.7-7.5-4.9-9.4
		c-2.3-1.3-6.2-2-11.6-2h-12.5v45.2h13.9c5.7,0,9.8-0.7,12.3-2.2c3.5-2.2,5.3-5.6,5.2-10C338,126.9,335,123,329.2,121.5 M309.5,123
		h10.6c5.3,0,9.1,0.8,11.4,2.3c2.3,1.5,3.5,3.9,3.5,7.3c0,4.6-1.7,7.4-5.2,8.9c-1.7,0.7-5,1.1-9.8,1.1h-10.5V123z M319.4,120.5h-9.9
		v-17.8h9.8c4.9,0,8.4,0.6,10.4,1.8c2.1,1.3,3.2,3.5,3.2,6.8C332.8,117.5,328.6,120.5,319.4,120.5"/>
	<path clip-path="url(#SVGID_5_)" fill="#B4A698" d="M373.6,139.3c-0.2-2.9-0.4-5.8-0.5-8.7c-0.4-3.9-2.2-6.6-5.3-7.7
		c4.6-1.9,7-5.6,7-10.9c0-4.3-1.2-7.4-3.8-9.3c-2.6-1.8-6.5-2.7-11.8-2.7h-15.2v45.2h2.9v-20.9h13.3c4.3,0,7,0.9,8.3,2.4
		c0.8,0.9,1.3,2.2,1.6,3.7c0.1,0.7,0.3,2.5,0.4,5.4c0.2,3.3,0.3,5.2,0.4,5.8c0.2,1.6,0.5,2.8,1.1,3.5l0.1,0.2h3.3l-0.5-0.7
		C374.2,143.6,373.8,141.9,373.6,139.3 M371.9,112.3c-0.1,6.3-3.7,9.3-11.7,9.3h-13.3v-18.8h12.3c2.8,0,4.8,0.1,6,0.4
		c1.7,0.4,3.1,1.1,4.2,2.3C371.1,107.2,371.9,109.4,371.9,112.3"/>
	<path clip-path="url(#SVGID_5_)" fill="#B4A698" d="M399.9,99.1c-6.2,0-11.1,2.1-14.7,6.3c-3.6,4.2-5.3,10-5.3,17.3
		c0,7.3,1.8,13.1,5.3,17.3c3.6,4.2,8.5,6.3,14.7,6.3h0c6.2,0,11.1-2.1,14.7-6.3c3.6-4.2,5.4-10,5.4-17.3c0-7.3-1.8-13.1-5.4-17.3
		C411.1,101.2,406.1,99.1,399.9,99.1 M399.9,143.5c-5.3,0-9.4-1.8-12.5-5.5c-3-3.7-4.6-8.8-4.6-15.3c0-6.6,1.5-11.7,4.6-15.4
		c3-3.7,7.1-5.5,12.5-5.5c5.3,0,9.4,1.8,12.5,5.5c3,3.7,4.6,8.8,4.6,15.4c0,6.6-1.5,11.7-4.6,15.3
		C409.4,141.7,405.3,143.5,399.9,143.5"/>
	<polygon clip-path="url(#SVGID_5_)" fill="#B4A698" points="453.9,102.7 453.9,100.1 424.7,100.1 424.7,102.8 450.4,102.8 
		422.3,142.6 422.3,145.2 454.6,145.2 454.6,144.8 454.6,142.5 425.8,142.5 	"/>
	<polygon clip-path="url(#SVGID_5_)" fill="#B4A698" points="459.1,145.2 462,145.2 462,144.8 462,100.1 459.1,100.1 	"/>
	<path clip-path="url(#SVGID_5_)" fill="#B4A698" d="M485.7,100.1h-2.9l-17.5,45.2h3l5.8-15.1h20.1l5.7,15.1h3l-0.2-0.6L485.7,100.1
		z M493.1,127.4h-17.9l9-23.3L493.1,127.4z"/>
	<polygon clip-path="url(#SVGID_5_)" fill="#B4A698" points="538.4,144.6 518.4,118.3 536.4,100.1 532.5,100.1 508.6,124.4 
		508.6,100.1 505.7,100.1 505.7,145.2 508.6,145.2 508.6,128.4 516.5,120.3 535.4,145.2 538.9,145.2 	"/>
	<path clip-path="url(#SVGID_5_)" fill="#B4A698" d="M26.9,124.9c-2-1.5-5.6-2.9-10.8-4.4c-5.1-1.4-8.3-2.7-9.5-3.8
		c-1.7-1.6-2.6-3.5-2.6-5.7c0-2.9,1-5.2,2.8-6.9c1.9-1.7,4.6-2.6,7.9-2.6c3.5,0,6.4,1,8.6,2.9c2.2,1.9,3.3,4.6,3.3,7.9l0,0.4h2.9
		l0-0.4c-0.2-4.1-1.6-7.4-4.2-9.8c-2.6-2.4-6.1-3.6-10.4-3.6c-4.2,0-7.6,1.1-10,3.3c-2.5,2.2-3.7,5.1-3.7,8.7c0,3.1,1.1,5.6,3.3,7.6
		c1,0.9,2.5,1.8,4.5,2.5c1,0.4,3.1,1,6.2,1.9c4.9,1.4,8.1,2.6,9.7,3.8c2,1.5,3,3.7,3,6.8c0,2.9-1.1,5.3-3.3,7.1
		c-2.2,1.9-5.2,2.8-8.9,2.8c-3.7,0-6.7-1.1-9-3.3c-2.3-2.2-3.6-5.2-3.8-9l0-0.4H0l0,0.4c0.3,4.6,1.9,8.3,4.7,10.9
		c2.8,2.6,6.4,4,10.9,4c4.6,0,8.3-1.2,11-3.6c2.7-2.4,4.1-5.6,4.1-9.6C30.7,129.5,29.4,126.7,26.9,124.9"/>
	<polygon clip-path="url(#SVGID_5_)" fill="#B4A698" points="36,142.6 64.1,102.7 64.1,100.1 35,100.1 35,102.8 60.7,102.8 
		32.7,142.6 32.6,142.7 32.6,145.2 64.8,145.2 64.8,142.6 	"/>
	<path clip-path="url(#SVGID_5_)" fill="#B4A698" d="M81.6,100.1H69.1v45.2H72v-20.5h9.4c3.1,0,5.4-0.1,6.9-0.4
		c2.6-0.5,4.7-1.5,6.2-3.1c2.3-2.3,3.5-5.3,3.5-9C98,104.2,92.5,100.1,81.6,100.1 M72,102.8h8.1c5.2,0,8.8,0.5,10.7,1.6
		c2.9,1.6,4.2,4.1,4.2,7.7c0,4.6-1.6,7.5-4.8,8.9c-1.7,0.8-5.1,1.1-10.2,1.1H72V102.8z"/>
	<rect x="104.3" y="100.1" clip-path="url(#SVGID_5_)" fill="#B4A698" width="2.9" height="45.2"/>
	<polygon clip-path="url(#SVGID_5_)" fill="#B4A698" points="111.9,100.1 111.9,102.8 126,102.8 126,145.2 128.8,145.2 128.8,102.8 
		142.6,102.8 142.6,100.1 	"/>
	<path clip-path="url(#SVGID_5_)" fill="#B4A698" d="M159.5,100.1h-2.9l-17.5,45.2h3l5.8-15.1H168l5.7,15.1h2.9L159.5,100.1z
		 M167,127.5h-18l9.1-23.4L167,127.5z"/>
	<polygon clip-path="url(#SVGID_5_)" fill="#B4A698" points="182.5,142.5 182.5,100.1 179.7,100.1 179.7,145.2 206,145.2 206,142.5 
			"/>
</g>
</svg>
