<?xml version="1.0" encoding="utf-8"?>
<!-- Generator: Adobe Illustrator 18.0.0, SVG Export Plug-In . SVG Version: 6.00 Build 0)  -->
<!DOCTYPE svg PUBLIC "-//W3C//DTD SVG 1.1//EN" "http://www.w3.org/Graphics/SVG/1.1/DTD/svg11.dtd">
<svg version="1.1" id="Warstwa_1" xmlns="http://www.w3.org/2000/svg" xmlns:xlink="http://www.w3.org/1999/xlink" x="0px" y="0px"
	 viewBox="0 0 256 137.5" enable-background="new 0 0 256 137.5" xml:space="preserve">
<g>
	<defs>
		<rect id="SVGID_1_" width="256" height="137.5"/>
	</defs>
	<clipPath id="SVGID_2_">
		<use xlink:href="#SVGID_1_"  overflow="visible"/>
	</clipPath>
	<path clip-path="url(#SVGID_2_)" fill-rule="evenodd" clip-rule="evenodd" fill="#3B4552" d="M33,0h201h6c4.4,0,8.4,1.8,11.3,4.7
		c2.9,2.9,4.7,6.9,4.7,11.3v47.7V111c0,3.3-2.7,6-6,6h-12.3c0-0.2,0-0.3,0-0.5c0-8.2-3.3-16.1-9.1-21.9c-5.8-5.8-13.7-9.1-21.9-9.1
		c-8.2,0-16.1,3.3-21.9,9.1l-0.2,0.2l-0.2-0.2c-5.8-5.8-13.7-9.1-21.9-9.1s-16.1,3.3-21.9,9.1c-5.8,5.8-9.1,13.7-9.1,21.9
		c0,0.2,0,0.3,0,0.5H93.3c0-0.2,0-0.3,0-0.5c0-8.2-3.3-16.1-9.1-21.9c-5.8-5.8-13.7-9.1-21.9-9.1c-8.2,0-16.1,3.3-21.9,9.1
		c-5.8,5.8-9.1,13.7-9.1,21.9c0,0.2,0,0.3,0,0.5H6c-3.3,0-6-2.7-6-6V81c0-2.8,0.2-5.4,0.6-8c0.4-2.6,1-5.2,1.8-7.9l14.9-50.7
		c1-3.4,2.5-6.7,4.8-9.2C24.7,2,28.3,0,33,0 M238,50.6V16c0-1.1-0.5-2.1-1.2-2.8c-0.7-0.7-1.7-1.2-2.8-1.2h-45v39.4L238,50.6z
		 M12.9,72.2l48.4-17.5L63.4,12H33c-0.8,0-1.5,0.4-2,1c-1,1.1-1.7,2.8-2.3,4.7L13.8,68.4C13.4,69.7,13.1,70.9,12.9,72.2 M69.3,53.5
		l51.7-0.9V12H71.4L69.3,53.5z M129,52.4l52-0.9V12h-52V52.4z M12,88.7c0-3.3,2.7-6,6-6c3.3,0,6,2.7,6,6v6.1c0,3.3-2.7,6-6,6
		c-3.3,0-6-2.7-6-6V88.7z"/>
	<path clip-path="url(#SVGID_2_)" fill="#2B78C2" d="M162.6,95.5c5.8,0,11,2.4,14.8,6.2c3.8,3.8,6.2,9.1,6.2,14.8s-2.4,11-6.2,14.8
		c-3.8,3.8-9.1,6.2-14.8,6.2c-5.8,0-11-2.4-14.8-6.2c-3.8-3.8-6.2-9.1-6.2-14.8s2.4-11,6.2-14.8C151.5,97.8,156.8,95.5,162.6,95.5
		 M168.3,110.8c-1.5-1.5-3.5-2.4-5.7-2.4s-4.3,0.9-5.7,2.4c-1.5,1.5-2.4,3.5-2.4,5.7c0,2.2,0.9,4.2,2.4,5.7c1.5,1.5,3.5,2.4,5.7,2.4
		s4.2-0.9,5.7-2.4c1.5-1.5,2.4-3.5,2.4-5.7C170.6,114.3,169.7,112.2,168.3,110.8 M206.7,95.5c5.8,0,11,2.3,14.8,6.2
		c3.8,3.8,6.2,9.1,6.2,14.8s-2.3,11-6.2,14.8c-3.8,3.8-9,6.2-14.8,6.2c-5.8,0-11-2.4-14.8-6.2c-3.8-3.8-6.2-9.1-6.2-14.8
		s2.4-11,6.2-14.8C195.7,97.8,200.9,95.5,206.7,95.5 M212.4,110.8c-1.5-1.5-3.5-2.4-5.7-2.4c-2.2,0-4.2,0.9-5.7,2.4
		c-1.5,1.5-2.4,3.5-2.4,5.7c0,2.2,0.9,4.2,2.4,5.7c1.5,1.5,3.5,2.4,5.7,2.4c2.2,0,4.3-0.9,5.7-2.4c1.5-1.5,2.4-3.5,2.4-5.7
		C214.8,114.3,213.9,112.2,212.4,110.8 M62.3,95.5c5.8,0,11,2.3,14.8,6.2c3.8,3.8,6.2,9.1,6.2,14.8s-2.3,11-6.2,14.8
		c-3.8,3.8-9,6.2-14.8,6.2c-5.8,0-11-2.4-14.8-6.2c-3.8-3.8-6.2-9.1-6.2-14.8s2.4-11,6.2-14.8S56.5,95.5,62.3,95.5 M68,110.8
		c-1.5-1.5-3.5-2.4-5.7-2.4s-4.2,0.9-5.7,2.4c-1.5,1.5-2.4,3.5-2.4,5.7c0,2.2,0.9,4.2,2.4,5.7c1.5,1.5,3.5,2.4,5.7,2.4
		s4.3-0.9,5.7-2.4c1.5-1.5,2.4-3.5,2.4-5.7C70.4,114.3,69.4,112.2,68,110.8"/>
</g>
</svg>
