<?xml version="1.0" encoding="utf-8"?>
<!-- Generator: Adobe Illustrator 18.0.0, SVG Export Plug-In . SVG Version: 6.00 Build 0)  -->
<!DOCTYPE svg PUBLIC "-//W3C//DTD SVG 1.1//EN" "http://www.w3.org/Graphics/SVG/1.1/DTD/svg11.dtd">
<svg version="1.1" id="Warstwa_1" xmlns="http://www.w3.org/2000/svg" xmlns:xlink="http://www.w3.org/1999/xlink" x="0px" y="0px"
	 viewBox="0 0 23 25" enable-background="new 0 0 23 25" xml:space="preserve">
<g>
	<path d="M10.9,12.8c0,0,0.1,0,0.1,0.1c0,0,0.1,0,0.1,0.1c0.1,0,0.2,0.1,0.4,0.1c0.1,0,0.2,0,0.3-0.1c0,0,0.1,0,0.1-0.1
		c0,0,0.1,0,0.1-0.1l5.4-4c0.4-0.3,0.5-1,0.2-1.4c-0.3-0.5-0.9-0.6-1.4-0.2l-3.8,2.8v-9c0-0.6-0.4-1-1-1c-0.6,0-1,0.5-1,1v9L6.7,7.1
		C6.3,6.8,5.6,6.9,5.3,7.3C5,7.8,5.1,8.4,5.5,8.8L10.9,12.8z M23,15.7c0-0.1,0-0.2-0.1-0.3c0-0.1-0.1-0.1-0.1-0.2c0,0,0-0.1-0.1-0.1
		l-4-4.3c-0.4-0.4-1-0.4-1.4,0c-0.4,0.4-0.4,1,0,1.4l2.4,2.5h-4.1c-0.6,0-1,0.5-1,1v1.4h-6v-1.4c0-0.6-0.4-1-1-1H3.4l2.4-2.5
		c0.4-0.4,0.4-1.1,0-1.4c-0.4-0.4-1-0.4-1.4,0l-4,4.3c0,0,0,0,0,0l0,0c0,0,0,0,0,0.1c-0.1,0.1-0.1,0.2-0.2,0.3c0,0.1,0,0.1,0,0.2
		c0,0.1,0,0.1,0,0.2V23c0,0.6,0.4,1,1,1h21c0.6,0,1-0.5,1-1v-7.2c0,0,0,0,0,0L23,15.7C23,15.8,23,15.7,23,15.7z M21,22H2v-5.2h4.5
		v0.4c0,1.1,0.9,2,2,2h6c1.1,0,2-0.9,2-2v-0.4H21V22z"/>
</g>
</svg>
