<?xml version="1.0" encoding="utf-8"?>
<!-- Generator: Adobe Illustrator 18.0.0, SVG Export Plug-In . SVG Version: 6.00 Build 0)  -->
<!DOCTYPE svg PUBLIC "-//W3C//DTD SVG 1.1//EN" "http://www.w3.org/Graphics/SVG/1.1/DTD/svg11.dtd">
<svg version="1.1" id="Warstwa_1" xmlns="http://www.w3.org/2000/svg" xmlns:xlink="http://www.w3.org/1999/xlink" x="0px" y="0px"
	 viewBox="0 0 46 63" enable-background="new 0 0 46 63" xml:space="preserve">
<path fill-rule="evenodd" clip-rule="evenodd" fill="#43403D" d="M23,0c12.7,0,22.9,9.2,22.9,22.9C45.9,37.3,23,63,23,63
	S0.1,37.3,0.1,22.9C0.1,9.2,10.3,0,23,0z"/>
<path fill="#FFFFFF" d="M35.5,17.9c0-4.8-4.1-7.3-7.8-7.3c-1.6,0-3.2,0.3-4.7,0.8c-1.5-0.5-3.1-0.8-4.7-0.8c-3.7,0-7.8,2.5-7.8,7.3
	c0,1.6,0.4,2.9,1.1,3.9c-0.7,1.1-1.1,2.4-1.1,3.9c0,4.8,4.1,7.3,7.8,7.3c1.6,0,3.2-0.3,4.7-0.8c1.5,0.5,3.1,0.8,4.7,0.8
	c3.7,0,7.8-2.5,7.8-7.3c0-1.6-0.4-2.9-1.1-3.9C35.1,20.7,35.5,19.4,35.5,17.9z M27.7,17.9c0,0.2,0,0.4-0.1,0.6
	c-1.6,0-3.2,0.3-4.7,0.8c-1.5-0.5-3.1-0.8-4.7-0.8c-0.1-0.2-0.1-0.4-0.1-0.6c0-1.7,2-3.6,4.7-4.7C25.7,14.2,27.7,16.2,27.7,17.9z
	 M26.5,20.8c-0.2,0.2-0.6,0.3-0.9,0c-0.3-0.3-0.2-0.7,0-0.9c0.4-0.4,1-0.5,1.2-0.3C27,19.9,26.9,20.5,26.5,20.8z M26.8,23.9
	c-0.2,0.2-0.8,0.1-1.2-0.3c-0.2-0.2-0.3-0.6,0-0.9c0.3-0.3,0.7-0.2,0.9,0C26.9,23.1,27,23.7,26.8,23.9z M24.1,22.9
	c-0.2,0.2-0.4,0.2-0.6,0.2c-0.1,0.2-0.3,0.3-0.5,0.3c-0.3,0-0.4-0.1-0.5-0.3c-0.2,0.1-0.4,0-0.6-0.2c-0.2-0.2-0.2-0.4-0.2-0.6
	c-0.2-0.1-0.3-0.3-0.3-0.5c0-0.3,0.1-0.4,0.3-0.5c-0.1-0.2,0-0.4,0.2-0.6c0.2-0.2,0.4-0.2,0.6-0.2c0.1-0.2,0.3-0.3,0.5-0.3
	c0.3,0,0.4,0.1,0.5,0.3c0.2-0.1,0.4,0,0.6,0.2c0.2,0.2,0.2,0.4,0.2,0.6c0.2,0.1,0.3,0.3,0.3,0.5c0,0.3-0.1,0.4-0.3,0.5
	C24.4,22.5,24.3,22.7,24.1,22.9z M20.4,20.9c-0.3,0.3-0.7,0.2-0.9,0c-0.4-0.4-0.5-0.9-0.3-1.1c0.2-0.2,0.8-0.1,1.2,0.3
	C20.6,20.2,20.7,20.6,20.4,20.9z M20.4,23.6c-0.4,0.4-1,0.5-1.2,0.3c-0.2-0.2-0.1-0.8,0.3-1.1c0.2-0.2,0.6-0.3,0.9,0
	C20.7,23,20.6,23.4,20.4,23.6z M18.8,12.4c0.6,0,1.1,0,1.7,0.1c-2.7,1.5-4.5,3.6-4.5,5.4c0,0.3,0,0.6,0.1,0.9
	c-1,0.3-1.9,0.7-2.7,1.3c-0.3-0.6-0.4-1.4-0.4-2.2C12.9,14.2,15.9,12.4,18.8,12.4z M18.3,21.8c-0.5,0.4-1,0.9-1.3,1.3
	c-0.9-0.3-1.7-0.7-2.4-1.3c0.7-0.6,1.5-1.1,2.4-1.3C17.3,20.9,17.8,21.4,18.3,21.8z M18.8,31.3c-2.8,0-5.9-1.9-5.9-5.5
	c0-0.8,0.2-1.6,0.4-2.2c0.8,0.6,1.8,1,2.7,1.3c-0.1,0.3-0.1,0.6-0.1,0.9c0,1.8,1.8,3.9,4.5,5.4C19.9,31.2,19.3,31.3,18.8,31.3z
	 M18.3,25.7c0-0.2,0-0.4,0.1-0.6c1.6,0,3.2-0.3,4.7-0.8c1.5,0.5,3.1,0.8,4.7,0.8c0.1,0.2,0.1,0.4,0.1,0.6c0,1.7-2,3.6-4.7,4.7
	C20.3,29.4,18.3,27.4,18.3,25.7z M27.2,31.3c-0.6,0-1.1,0-1.7-0.1c2.7-1.5,4.5-3.6,4.5-5.4c0-0.3,0-0.6-0.1-0.9
	c1-0.3,1.9-0.7,2.7-1.3c0.3,0.6,0.4,1.4,0.4,2.2C33.1,29.4,30.1,31.3,27.2,31.3z M27.7,21.8c0.5-0.4,0.9-0.9,1.3-1.3
	c0.9,0.3,1.7,0.7,2.4,1.3c-0.7,0.6-1.5,1.1-2.4,1.3C28.7,22.7,28.3,22.2,27.7,21.8z M32.7,20.1c-0.8-0.6-1.8-1-2.7-1.3
	c0.1-0.3,0.1-0.6,0.1-0.9c0-1.8-1.8-3.9-4.5-5.4c0.5-0.1,1.1-0.1,1.7-0.1c2.8,0,5.9,1.9,5.9,5.5C33.1,18.7,33,19.4,32.7,20.1z"/>
</svg>
