<?xml version="1.0" encoding="utf-8"?>
<!-- Generator: Adobe Illustrator 18.0.0, SVG Export Plug-In . SVG Version: 6.00 Build 0)  -->
<!DOCTYPE svg PUBLIC "-//W3C//DTD SVG 1.1//EN" "http://www.w3.org/Graphics/SVG/1.1/DTD/svg11.dtd">
<svg version="1.1" id="Warstwa_1" xmlns="http://www.w3.org/2000/svg" xmlns:xlink="http://www.w3.org/1999/xlink" x="0px" y="0px"
	 viewBox="0 0 22 25" enable-background="new 0 0 22 25" xml:space="preserve">
<g>
	<path d="M11-0.1C4.9-0.1,0,4.7,0,10.5c0,5.6,9.3,13.3,10.3,14.2c0.2,0.2,0.4,0.2,0.7,0.2c0.2,0,0.5-0.1,0.7-0.2
		C12.8,23.8,22,16.1,22,10.5C22,4.7,17.1-0.1,11-0.1z M11,22.5c-3-2.6-8.9-8.4-8.9-12C2.1,5.8,6.1,2,11,2c4.9,0,8.9,3.8,8.9,8.5
		C19.9,14.1,14,19.9,11,22.5z M11,5.3c-3,0-5.4,2.3-5.4,5.2c0,2.8,2.4,5.2,5.4,5.2c3,0,5.4-2.3,5.4-5.2C16.4,7.7,14,5.3,11,5.3z
		 M11,13.6c-1.8,0-3.2-1.4-3.2-3.1c0-1.7,1.4-3.1,3.2-3.1c1.8,0,3.2,1.4,3.2,3.1C14.2,12.2,12.8,13.6,11,13.6z"/>
</g>
</svg>
