<?xml version="1.0" encoding="utf-8"?>
<!-- Generator: Adobe Illustrator 18.0.0, SVG Export Plug-In . SVG Version: 6.00 Build 0)  -->
<!DOCTYPE svg PUBLIC "-//W3C//DTD SVG 1.1//EN" "http://www.w3.org/Graphics/SVG/1.1/DTD/svg11.dtd">
<svg version="1.1" id="Warstwa_1" xmlns="http://www.w3.org/2000/svg" xmlns:xlink="http://www.w3.org/1999/xlink" x="0px" y="0px"
	 viewBox="0 0 240 220" enable-background="new 0 0 240 220" xml:space="preserve">
<g>
	<defs>
		<rect id="SVGID_1_" width="240" height="220"/>
	</defs>
	<clipPath id="SVGID_2_">
		<use xlink:href="#SVGID_1_"  overflow="visible"/>
	</clipPath>
	<path clip-path="url(#SVGID_2_)" fill-rule="evenodd" clip-rule="evenodd" fill="#3B4552" d="M120,0c66.3,0,120,53.7,120,120
		c0,41.7-21.3,78.4-53.6,100l-12.5-24.7l-9.8,1.6l11.3,23H64.6l11.3-23l-9.8-1.7L53.6,220C21.3,198.4,0,161.7,0,120
		C0,53.7,53.7,0,120,0 M183.6,63.3v94.2c0,2.4-1.9,4.3-4.2,4.5l-118.9,0c-2.3,0-4.1-2.1-4.1-4.4c0-27.1,0-65.2,0-94.2
		C56.4,36.1,183.6,36.1,183.6,63.3 M163.2,136.1c4.9,0,8.9,4,8.9,8.9c0,4.9-4,8.9-8.9,8.9c-4.9,0-8.9-4-8.9-8.9
		C154.2,140.1,158.2,136.1,163.2,136.1 M76.8,136.1c4.9,0,8.9,4,8.9,8.9c0,4.9-4,8.9-8.9,8.9c-4.9,0-8.9-4-8.9-8.9
		C67.9,140.1,71.9,136.1,76.8,136.1 M61.4,169.9l9.5,0c0,3.3,2.7,6,6,6c3.3,0,6-2.7,6-6l13.2,0v0.1c0,3.3,2.7,6,6,6h36
		c3.3,0,6-2.7,6-6l0-0.1l13.2,0c0,3.3,2.7,6,6,6c3.3,0,6-2.7,6-6v0l9.6,0c2.6,0,4.8,1.8,4.8,4.4l0,7.9c0,2.3-1.8,4.2-4.1,4.4
		l-31.7,5.1l-57.4-0.1l-30.4-5c-2.2-0.4-3.7-2.2-3.7-4.4l0-7.9C56.4,171.7,58.7,169.6,61.4,169.9 M102,63c-3.3,0-6-2.7-6-6
		c0-3.3,2.7-6,6-6h36c3.3,0,6,2.7,6,6c0,3.3-2.7,6-6,6H102z"/>
	<path clip-path="url(#SVGID_2_)" fill-rule="evenodd" clip-rule="evenodd" fill="#2B78C2" d="M172.1,126V75.1
		c0-2.3-1.8-4.3-4.1-4.5c-30.2-2.3-65.7-2.3-95.9,0c-2.3,0.2-4.1,2.1-4.1,4.5V126C67.9,129.8,172.1,130.5,172.1,126 M164.1,78.5
		c-29-2.1-59.2-2.1-88.2,0v41.3L164.1,78.5z"/>
</g>
</svg>
