<?xml version="1.0" encoding="utf-8"?>
<!-- Generator: Adobe Illustrator 18.0.0, SVG Export Plug-In . SVG Version: 6.00 Build 0)  -->
<!DOCTYPE svg PUBLIC "-//W3C//DTD SVG 1.1//EN" "http://www.w3.org/Graphics/SVG/1.1/DTD/svg11.dtd">
<svg version="1.1" id="Warstwa_1" xmlns="http://www.w3.org/2000/svg" xmlns:xlink="http://www.w3.org/1999/xlink" x="0px" y="0px"
	 viewBox="0 0 16 15" enable-background="new 0 0 16 15" xml:space="preserve">
<g>
	<path d="M15.3,3.9c0-0.2-0.1-0.4-0.2-0.5l-3.3-3.2C11.7,0.1,11.5,0,11.3,0c-0.2,0-0.4,0.1-0.5,0.2L0.4,10.4
		c-0.1,0.1-0.2,0.3-0.2,0.4L0,14.3c0,0.2,0.1,0.4,0.2,0.5C0.3,14.9,0.5,15,0.7,15c0,0,0,0,0,0l3.5-0.2c0.2,0,0.3-0.1,0.4-0.2
		L15.1,4.4C15.2,4.3,15.3,4.1,15.3,3.9z M3.9,13.5l-1.6,0.1c-0.1-0.4-0.4-0.7-0.8-0.8l0.1-1.5l8.1-7.9l0.7,0.7l-7.7,7.6
		c-0.3,0.3-0.3,0.7,0,1c0.1,0.1,0.3,0.2,0.5,0.2c0.2,0,0.4-0.1,0.5-0.2l7.7-7.6L12,5.6L3.9,13.5z M12.9,4.6l-2.3-2.3l0.7-0.7
		l2.3,2.3L12.9,4.6z M15.3,13.5H7.6c-0.4,0-0.7,0.3-0.7,0.7c0,0.4,0.3,0.7,0.7,0.7h7.7c0.4,0,0.7-0.3,0.7-0.7
		C16,13.8,15.7,13.5,15.3,13.5z"/>
</g>
</svg>
