<?xml version="1.0" encoding="utf-8"?>
<!-- Generator: Adobe Illustrator 18.0.0, SVG Export Plug-In . SVG Version: 6.00 Build 0)  -->
<!DOCTYPE svg PUBLIC "-//W3C//DTD SVG 1.1//EN" "http://www.w3.org/Graphics/SVG/1.1/DTD/svg11.dtd">
<svg version="1.1" id="Warstwa_1" xmlns="http://www.w3.org/2000/svg" xmlns:xlink="http://www.w3.org/1999/xlink" x="0px" y="0px"
	 viewBox="0 0 256 181.8" enable-background="new 0 0 256 181.8" xml:space="preserve">
<g>
	<defs>
		<rect id="SVGID_1_" width="256" height="181.8"/>
	</defs>
	<clipPath id="SVGID_2_">
		<use xlink:href="#SVGID_1_"  overflow="visible"/>
	</clipPath>
	<path clip-path="url(#SVGID_2_)" fill="#2B78C2" d="M130.6,1l35.2,29.9c1.7,1.4,1.9,3.9,0.5,5.6c-0.2,0.2-0.3,0.4-0.5,0.5
		l-24.5,20.8h-12.3l28.2-23.9L128,9.2L98.9,33.9l28.2,23.9h-12.3L90.2,37c-1.7-1.4-1.9-3.9-0.5-5.6c0.2-0.2,0.3-0.4,0.5-0.5
		l35.2-29.9C127-0.3,129.2-0.3,130.6,1 M147,129.2l-9,5.7v-9.5l9-5.7V129.2z M109,119.7c0.1,0,0.1,0.1,0.2,0.1l8.8,5.6v9.5
		c-0.1,0-0.1-0.1-0.2-0.1l-8.8-5.6V119.7z"/>
	<path clip-path="url(#SVGID_2_)" fill="#3B4552" d="M21,68.1h214c4.4,0,8,1.7,10.8,4.5c2.8,2.8,4.5,6.6,5.1,10.7
		c1.9,14,3.1,26.3,3.9,38c0.8,11.9,1.1,23.8,1.1,37.8c0,3.3-2.7,6-6,6h-6.2c-0.3,4.5-2.3,8.5-5.2,11.4c-3.3,3.3-7.8,5.3-12.7,5.3
		c-5,0-9.5-2-12.7-5.3c-0.4-0.4-0.9-0.9-1.3-1.4c-0.4,0.5-0.8,1-1.3,1.4c-3.3,3.3-7.8,5.3-12.7,5.3c-5,0-9.5-2-12.7-5.3
		c-3-3-4.9-7-5.2-11.4H76.1c-0.3,4.5-2.3,8.5-5.2,11.4c-3.3,3.3-7.8,5.3-12.7,5.3c-5,0-9.5-2-12.7-5.3c-0.5-0.4-0.9-0.9-1.3-1.4
		c-0.4,0.5-0.8,1-1.3,1.4c-3.3,3.3-7.8,5.3-12.7,5.3c-5,0-9.5-2-12.7-5.3c-3-3-4.9-7-5.2-11.4H6c-3.3,0-6-2.7-6-6v0v0v0v0v0v0
		c0-14,0.3-25.8,1.1-37.7c0.8-11.8,2.1-24,3.9-38c0.6-4.1,2.3-7.9,5.1-10.7C13,69.8,16.6,68.1,21,68.1 M132,155.1h21v-77h-21V155.1z
		 M124,78.1h-21v77h21V78.1z M161,80.1v36h38l-1.5-36H161z M95,116.1v-36H58.4l-1.5,36H95z M205.5,80.1l1.5,36h35.4
		c-0.8-9.6-1.9-20-3.4-31.2c-0.2-1.5-0.8-2.9-1.7-3.8c-0.6-0.6-1.4-1-2.3-1H205.5z M49,116.1l1.5-36H21c-0.9,0-1.7,0.4-2.3,1
		c-0.9,0.9-1.5,2.3-1.7,3.8c-1.5,11.2-2.6,21.6-3.4,31.2H49z"/>
</g>
</svg>
