<svg xmlns="http://www.w3.org/2000/svg" viewBox="0 0 281 74"><path d="M1.5 64.6l4.2-4.3 9.9 13.2h1.9l-.3-.4L6.7 59.3l9.5-9.6h-2L1.5 62.5V49.7H0v23.8h1.5zm18.6-14.9h-1.5v23.8h13.9V72H20.1zm16.3 23.5V49.7h-1.5v23.8h1.5zm6.3-20.7l14.3 21h1.4V49.7h-1.5v20.9L42.6 49.7h-1.4v23.8h1.5zm22 20.7V49.7h-1.6v23.8h1.6zm6.2-8.6l4.2-4.2L85 73.5h2.5l3.1-8h10.6l3 8h1.6l-.1-.3-8.9-23.5h-1.5l-8.9 22.9-10.3-13.3 9.5-9.6h-2L70.9 62.5V49.7h-1.5v23.8h1.5v-8.9zm20.2-.5l4.8-12.3 4.7 12.3h-9.5zm32.2-14.4h-1.5l-9.2 23.8h1.6l3-7.9h10.6l3 7.9h1.6l-.1-.3-9-23.5zm3.9 14.4h-9.4l4.8-12.3 4.6 12.3zm16.8 7.1l-8.2-21.5h-1.9v23.7h1.4V52.5l8 20.9h1.3l8.1-20.9v20.9h1.4V49.7h-1.9zm26.5-10.3c2.3-1 3.5-2.8 3.5-5.3 0-2.3-.9-4-2.6-5-1.2-.7-3.2-1-6.1-1h-6.6v23.8h7.3c3 0 5.2-.4 6.5-1.2 1.8-1.1 2.8-2.9 2.8-5.3-.1-3.1-1.7-5.2-4.8-6zm-10.3.8h5.6c2.8 0 4.8.4 6 1.2 1.2.8 1.8 2 1.8 3.9 0 2.4-.9 3.9-2.7 4.7-.9.4-2.6.6-5.2.6h-5.6V61.7zm5.2-1.3h-5.2V51h5.1c2.6 0 4.4.3 5.5.9 1.1.7 1.7 1.8 1.7 3.6-.1 3.3-2.3 4.9-7.1 4.9zm28.5 9.9c-.1-1.5-.2-3.1-.3-4.6-.2-2.1-1.2-3.5-2.8-4 2.4-1 3.7-2.9 3.7-5.7 0-2.2-.7-3.9-2-4.9-1.3-1-3.4-1.4-6.2-1.4h-8v23.8h1.5v-11h7c2.3 0 3.7.5 4.4 1.3.4.5.7 1.1.8 2 .1.4.1 1.3.2 2.8.1 1.7.2 2.7.2 3 .1.8.3 1.5.6 1.9l.1.1h1.7l-.3-.4c-.2-.6-.5-1.5-.6-2.9zm-.9-14.2c0 3.3-1.9 4.9-6.1 4.9h-7v-9.9h6.5c1.5 0 2.5.1 3.2.2.9.2 1.6.6 2.2 1.2.8.9 1.2 2.1 1.2 3.6zm14.8-7c-3.3 0-5.9 1.1-7.7 3.3-1.9 2.2-2.8 5.3-2.8 9.1s.9 6.9 2.8 9.1c1.9 2.2 4.5 3.3 7.7 3.3s5.8-1.1 7.7-3.3c1.9-2.2 2.8-5.2 2.8-9.1 0-3.8-.9-6.9-2.8-9.1-1.8-2.1-4.4-3.3-7.7-3.3zm0 23.4c-2.8 0-5-1-6.6-2.9-1.6-1.9-2.4-4.6-2.4-8.1s.8-6.2 2.4-8.1c1.6-1.9 3.8-2.9 6.6-2.9s5 1 6.6 2.9c1.6 1.9 2.4 4.6 2.4 8.1s-.8 6.2-2.4 8.1c-1.6 2-3.8 2.9-6.6 2.9zm28.4-21.4v-1.4h-15.3v1.4h13.5l-14.8 21v1.3h17V72h-15.2zm2.8 22.3h1.5V49.7H239zm14-23.7h-1.5l-9.2 23.8h1.6l3-8h10.6l3 8h1.6l-.1-.3-9-23.5zm3.9 14.4h-9.4l4.8-12.3 4.6 12.3zm23.8 9l-10.5-13.8 9.5-9.6h-2L265 62.5V49.7h-1.5v23.7h1.5v-8.8l4.2-4.3 9.9 13.1h1.9z" fill="#A99A8D"/><radialGradient id="a" cx="156.614" cy="18.706" r="21.757" gradientTransform="matrix(1.0061 0 0 .9953 -17.07 2.023)" gradientUnits="userSpaceOnUse"><stop offset=".212" stop-color="#cbc7c0"/><stop offset=".986" stop-color="#a99a8d"/></radialGradient><path fill="url(#a)" d="M163.4 13.4C163.4 4.6 156 0 149.1 0c-3 0-5.9.5-8.6 1.4-2.7-.9-5.6-1.4-8.6-1.4-6.8 0-14.3 4.6-14.3 13.4 0 2.9.8 5.3 2.1 7.2-1.3 2-2.1 4.4-2.1 7.2 0 8.8 7.5 13.4 14.3 13.4 3 0 5.9-.5 8.6-1.4 2.7.9 5.6 1.4 8.6 1.4 6.9 0 14.3-4.6 14.3-13.4 0-2.9-.8-5.3-2.1-7.2 1.3-1.9 2.1-4.3 2.1-7.2zm-14.2 0c0 .3 0 .7-.1 1.1-3 0-5.9.5-8.6 1.4-2.7-.9-5.6-1.4-8.5-1.4-.1-.4-.1-.7-.1-1.1 0-3.1 3.7-6.7 8.7-8.6 4.9 2 8.6 5.5 8.6 8.6zm-2.3 5.5c-.4.4-1.1.6-1.7 0-.5-.5-.4-1.3 0-1.7.7-.7 1.8-.8 2.1-.5.5.4.3 1.5-.4 2.2zm.5 5.6c-.4.4-1.5.2-2.1-.5-.4-.4-.6-1.1 0-1.7.5-.5 1.3-.4 1.7 0 .6.8.8 1.9.4 2.2zm-4.8-1.8c-.3.3-.7.4-1.1.3-.2.3-.5.6-1 .6s-.8-.2-1-.6c-.4.1-.8 0-1.1-.3-.3-.3-.4-.7-.3-1.1-.3-.2-.6-.5-.6-1s.2-.8.6-1c-.1-.4 0-.8.3-1.1.3-.3.7-.4 1.1-.3.2-.3.5-.6 1-.6s.8.2 1 .6c.4-.1.8 0 1.1.3.3.3.4.7.3 1.1.3.2.6.5.6 1s-.2.8-.6 1c.1.4 0 .8-.3 1.1zm-6.8-3.8c-.5.5-1.3.4-1.7 0-.7-.7-.9-1.7-.5-2.1.4-.4 1.5-.2 2.1.5.5.4.6 1.1.1 1.6zm-.1 5.1c-.7.7-1.8.8-2.1.5-.4-.4-.2-1.4.5-2.1.4-.4 1.1-.6 1.7 0 .5.5.4 1.2-.1 1.6zm-2.9-20.7c1 0 2 .1 3 .2-4.9 2.7-8.3 6.5-8.3 9.9 0 .5.1 1.1.2 1.6-1.8.5-3.5 1.3-5 2.4-.5-1.2-.8-2.5-.8-4 0-6.7 5.7-10.1 10.9-10.1zm-1 17.3c-.9.8-1.7 1.6-2.4 2.5-1.6-.5-3.2-1.3-4.4-2.5 1.3-1.2 2.8-2 4.4-2.5.7.9 1.5 1.8 2.4 2.5zm1 17.4c-5.2 0-10.8-3.5-10.8-10.2 0-1.5.3-2.9.8-4 1.5 1.1 3.2 1.9 5 2.4-.2.5-.2 1.1-.2 1.6 0 3.4 3.4 7.2 8.3 9.9-1.1.2-2.1.3-3.1.3zm-1-10.1c0-.3 0-.7.1-1.1 3 0 5.9-.5 8.5-1.4 2.7.9 5.6 1.4 8.5 1.4.1.4.1.7.1 1.1 0 3.1-3.7 6.7-8.7 8.6-4.8-2-8.5-5.5-8.5-8.6zM148.2 38c-1 0-2-.1-3-.2 4.9-2.7 8.3-6.5 8.3-9.9 0-.5-.1-1.1-.2-1.6 1.8-.5 3.5-1.3 5-2.4.5 1.2.8 2.5.8 4 0 6.6-5.7 10.1-10.9 10.1zm1-17.4c.9-.8 1.7-1.6 2.4-2.5 1.6.5 3.2 1.3 4.4 2.5-1.3 1.2-2.8 2-4.4 2.5-.7-.8-1.5-1.7-2.4-2.5zm9.1-3.2c-1.5-1.1-3.2-1.9-5-2.4.2-.5.2-1.1.2-1.6 0-3.4-3.4-7.2-8.3-9.9 1-.2 2-.2 3-.2 5.2 0 10.8 3.5 10.8 10.2.1 1.4-.2 2.8-.7 3.9z"/></svg>