<svg xmlns="http://www.w3.org/2000/svg" viewBox="0 0 55 17"><path d="M30.1.4l6 8.1-6 8.1h4.6l3.7-5 3.7 5h4.6L34.7.4h-4.6zM55 .4h-4.6l-3.7 5-3.7-5h-4.6l12 16.2H55l-6-8.1 6-8.1zM12.6 5.9c0-2.5-1.7-4.7-4-5.5C7.9.2 7.2 0 6.5 0H0v16.6h3.8v-4.8h2.8l3.5 4.8h4.6l-4.5-6.1c1.5-1.1 2.4-2.8 2.4-4.6zM7.3 8.1c-.3 0-.6.1-.9.1H3.8V3.6h2.6c1.3 0 2.4 1 2.4 2.3 0 1-.6 1.8-1.5 2.2zm18-7.7c-.8-.3-1.7-.4-2.6-.4s-1.8.1-2.6.4c-3.6 1.1-6.3 4.3-6.3 8.1s2.7 7.1 6.3 8.1c.8.2 1.7.4 2.6.4.9 0 1.8-.1 2.6-.4 3.6-1.1 6.3-4.3 6.3-8.1S29 1.4 25.3.4zm-2.6 13c-2.8 0-5.1-2.2-5.1-4.9s2.3-4.9 5.1-4.9 5.1 2.2 5.1 4.9-2.3 4.9-5.1 4.9z"/></svg>