<svg xmlns="http://www.w3.org/2000/svg" xmlns:xlink="http://www.w3.org/1999/xlink" viewBox="0 0 538.9 146.2"><defs><path id="a" d="M253 52.8c0-.7.1-1.3.3-2 5.6 0 11.1-1 16.2-2.7 5.1 1.7 10.6 2.7 16.2 2.7.2.7.3 1.4.3 2 0 5.9-7 12.6-16.5 16.4C260 65.5 253 58.7 253 52.8m-18.8 0c0-2.9.5-5.4 1.5-7.7 2.8 2.1 6.1 3.6 9.5 4.6-.3 1-.5 2.1-.5 3.1 0 6.4 6.4 13.7 15.8 18.9-1.9.3-3.8.5-5.8.5-9.8-.1-20.5-6.7-20.5-19.4m44.2 18.9c9.4-5.1 15.8-12.4 15.8-18.8 0-1-.2-2.1-.5-3.1 3.4-.9 6.7-2.5 9.5-4.6 1 2.2 1.5 4.8 1.5 7.6 0 12.7-10.8 19.3-20.6 19.3-1.9 0-3.8-.1-5.7-.4m.1-26.1c-.8-.8-1.1-2.2-.1-3.2s2.4-.7 3.2.1c1.3 1.3 1.6 3.3.9 4-.2.2-.6.3-1.1.3-.9 0-2.1-.4-2.9-1.2m-22.1.9c-.7-.7-.3-2.7.9-4 .8-.8 2.2-1.1 3.2-.1s.7 2.4-.1 3.2c-.8.8-2 1.3-2.9 1.3-.5-.1-.9-.2-1.1-.4m29.6-7.4c1.8-1.5 3.3-3.1 4.5-4.7 3.1.9 6 2.5 8.4 4.7-2.4 2.2-5.3 3.8-8.4 4.7-1.3-1.6-2.8-3.2-4.5-4.7m-46 0c2.4-2.2 5.3-3.8 8.4-4.7 1.2 1.6 2.8 3.2 4.5 4.7-1.8 1.5-3.3 3.1-4.6 4.7-3-.9-5.9-2.5-8.3-4.7m29.5-5.5c.9 0 1.5.5 1.9 1.1.7-.2 1.5-.1 2.1.6.6.6.8 1.4.6 2.1.6.3 1.1 1 1.1 1.9 0 .9-.5 1.5-1.1 1.9.2.7.1 1.4-.6 2.1-.6.6-1.4.7-2.1.6-.4.6-1 1.1-1.9 1.1-.9 0-1.5-.5-1.9-1.1-.7.2-1.5.1-2.1-.6-.6-.6-.8-1.4-.6-2.1-.6-.3-1.1-1-1.1-1.9 0-.9.5-1.5 1.1-1.9-.2-.7-.1-1.4.6-2.1.6-.6 1.4-.7 2.1-.6.3-.7 1-1.1 1.9-1.1m8.9 2.3c-1-1-.7-2.4.1-3.2 1.3-1.3 3.4-1.6 4-.9.7.7.3 2.7-.9 4-.4.4-1.1.7-1.7.7-.5 0-1.1-.2-1.5-.6m-21.1-.1c-1.3-1.3-1.6-3.3-.9-4 .7-.7 2.8-.3 4 .9.8.8 1.1 2.2.1 3.2-.5.5-1 .6-1.5.6-.6 0-1.3-.3-1.7-.7m-4.1-8.4c-.2-.7-.3-1.4-.3-2 0-5.9 7-12.6 16.5-16.4 9.5 3.8 16.5 10.5 16.5 16.4 0 .7-.1 1.3-.3 2-5.6 0-11.1 1-16.2 2.7-5-1.7-10.6-2.7-16.2-2.7m-19-2c0-12.7 10.7-19.3 20.6-19.3 1.9 0 3.9.2 5.7.4-9.4 5.1-15.8 12.4-15.8 18.8 0 1 .2 2 .5 3.1-3.4.9-6.7 2.5-9.5 4.6-1-2.2-1.5-4.7-1.5-7.6m59.5 3.1c.3-1 .5-2.1.5-3.1 0-6.4-6.4-13.7-15.8-18.9 1.9-.3 3.8-.4 5.8-.4 9.8 0 20.6 6.6 20.6 19.3 0 2.9-.5 5.4-1.5 7.6-2.9-2.1-6.2-3.6-9.6-4.5M253.1 0c-13 0-27.1 8.7-27.1 25.4 0 5.4 1.5 10 3.9 13.7-2.5 3.7-3.9 8.3-3.9 13.7 0 16.7 14.1 25.4 27.1 25.4 5.6 0 11.2-1 16.4-2.7 5.1 1.7 10.7 2.7 16.3 2.7 13 0 27.1-8.7 27.1-25.4 0-5.4-1.5-10-3.9-13.7 2.5-3.7 3.9-8.3 3.9-13.7C312.9 8.7 298.8 0 285.8 0c-5.6 0-11.2 1-16.3 2.7C264.3 1 258.8 0 253.1 0z"/></defs><clipPath id="b"><use xlink:href="#a" overflow="visible"/></clipPath><radialGradient id="c" cx="0" cy="146.236" r="1" gradientTransform="matrix(41.5541 0 0 -41.108 269.446 6050.59)" gradientUnits="userSpaceOnUse"><stop offset="0" stop-color="#d6d1cb"/><stop offset=".212" stop-color="#d6d1cb"/><stop offset=".986" stop-color="#b4a698"/><stop offset="1" stop-color="#b4a698"/></radialGradient><path clip-path="url(#b)" fill="url(#c)" d="M226 0h86.9v78.2H226z"/><defs><path id="d" d="M0 0h538.9v146.2H0z"/></defs><clipPath id="e"><use xlink:href="#d" overflow="visible"/></clipPath><path clip-path="url(#e)" fill="#B4A698" d="M239.6 100.1h-2.9l-17.5 45.2h3l5.8-15.1h20l5.7 15.1h2.9l-.2-.6-16.8-44.6zm7.4 27.3h-17.9l9.1-23.3 8.8 23.3zm31.8 13.6l-15.5-40.9h-3.7v45.1h2.7v-39.8l15.2 39.8h2.5l15.3-39.8v39.8h2.7v-45.1h-3.7zm50.4-19.5c4.3-2 6.6-5.4 6.6-10 0-4.3-1.7-7.5-4.9-9.4-2.3-1.3-6.2-2-11.6-2h-12.5v45.2h13.9c5.7 0 9.8-.7 12.3-2.2 3.5-2.2 5.3-5.6 5.2-10-.2-6.2-3.2-10.1-9-11.6m-19.7 1.5h10.6c5.3 0 9.1.8 11.4 2.3 2.3 1.5 3.5 3.9 3.5 7.3 0 4.6-1.7 7.4-5.2 8.9-1.7.7-5 1.1-9.8 1.1h-10.5V123zm9.9-2.5h-9.9v-17.8h9.8c4.9 0 8.4.6 10.4 1.8 2.1 1.3 3.2 3.5 3.2 6.8-.1 6.2-4.3 9.2-13.5 9.2m54.2 18.8c-.2-2.9-.4-5.8-.5-8.7-.4-3.9-2.2-6.6-5.3-7.7 4.6-1.9 7-5.6 7-10.9 0-4.3-1.2-7.4-3.8-9.3-2.6-1.8-6.5-2.7-11.8-2.7H344v45.2h2.9v-20.9h13.3c4.3 0 7 .9 8.3 2.4.8.9 1.3 2.2 1.6 3.7.1.7.3 2.5.4 5.4.2 3.3.3 5.2.4 5.8.2 1.6.5 2.8 1.1 3.5l.1.2h3.3l-.5-.7c-.7-1-1.1-2.7-1.3-5.3m-1.7-27c-.1 6.3-3.7 9.3-11.7 9.3h-13.3v-18.8h12.3c2.8 0 4.8.1 6 .4 1.7.4 3.1 1.1 4.2 2.3 1.7 1.7 2.5 3.9 2.5 6.8m28-13.2c-6.2 0-11.1 2.1-14.7 6.3-3.6 4.2-5.3 10-5.3 17.3 0 7.3 1.8 13.1 5.3 17.3 3.6 4.2 8.5 6.3 14.7 6.3 6.2 0 11.1-2.1 14.7-6.3 3.6-4.2 5.4-10 5.4-17.3 0-7.3-1.8-13.1-5.4-17.3-3.5-4.2-8.5-6.3-14.7-6.3m0 44.4c-5.3 0-9.4-1.8-12.5-5.5-3-3.7-4.6-8.8-4.6-15.3 0-6.6 1.5-11.7 4.6-15.4 3-3.7 7.1-5.5 12.5-5.5 5.3 0 9.4 1.8 12.5 5.5 3 3.7 4.6 8.8 4.6 15.4s-1.5 11.7-4.6 15.3c-3 3.7-7.1 5.5-12.5 5.5m54-40.8v-2.6h-29.2v2.7h25.7l-28.1 39.8v2.6h32.3v-2.7h-28.8zm5.2 42.5h2.9v-45.1h-2.9zm26.6-45.1h-2.9l-17.5 45.2h3l5.8-15.1h20.1l5.7 15.1h3l-.2-.6-17-44.6zm7.4 27.3h-17.9l9-23.3 8.9 23.3zm45.3 17.2l-20-26.3 18-18.2h-3.9l-23.9 24.3v-24.3h-2.9v45.1h2.9v-16.8l7.9-8.1 18.9 24.9h3.5zM26.9 124.9c-2-1.5-5.6-2.9-10.8-4.4-5.1-1.4-8.3-2.7-9.5-3.8-1.7-1.6-2.6-3.5-2.6-5.7 0-2.9 1-5.2 2.8-6.9 1.9-1.7 4.6-2.6 7.9-2.6 3.5 0 6.4 1 8.6 2.9 2.2 1.9 3.3 4.6 3.3 7.9v.4h2.9v-.4c-.2-4.1-1.6-7.4-4.2-9.8-2.6-2.4-6.1-3.6-10.4-3.6-4.2 0-7.6 1.1-10 3.3-2.5 2.2-3.7 5.1-3.7 8.7 0 3.1 1.1 5.6 3.3 7.6 1 .9 2.5 1.8 4.5 2.5 1 .4 3.1 1 6.2 1.9 4.9 1.4 8.1 2.6 9.7 3.8 2 1.5 3 3.7 3 6.8 0 2.9-1.1 5.3-3.3 7.1-2.2 1.9-5.2 2.8-8.9 2.8s-6.7-1.1-9-3.3c-2.3-2.2-3.6-5.2-3.8-9v-.4H0v.4c.3 4.6 1.9 8.3 4.7 10.9 2.8 2.6 6.4 4 10.9 4 4.6 0 8.3-1.2 11-3.6 2.7-2.4 4.1-5.6 4.1-9.6 0-3.3-1.3-6.1-3.8-7.9m9.1 17.7l28.1-39.9v-2.6H35v2.7h25.7l-28 39.8-.1.1v2.5h32.2v-2.6zm45.6-42.5H69.1v45.2H72v-20.5h9.4c3.1 0 5.4-.1 6.9-.4 2.6-.5 4.7-1.5 6.2-3.1 2.3-2.3 3.5-5.3 3.5-9 0-8.1-5.5-12.2-16.4-12.2m-9.6 2.7h8.1c5.2 0 8.8.5 10.7 1.6 2.9 1.6 4.2 4.1 4.2 7.7 0 4.6-1.6 7.5-4.8 8.9-1.7.8-5.1 1.1-10.2 1.1h-8v-19.3zm32.3-2.7h2.9v45.2h-2.9zm7.6 0v2.7H126v42.4h2.8v-42.4h13.8v-2.7zm47.6 0h-2.9l-17.5 45.2h3l5.8-15.1H168l5.7 15.1h2.9l-17.1-45.2zm7.5 27.4h-18l9.1-23.4 8.9 23.4zm15.5 15v-42.4h-2.8v45.1H206v-2.7z"/></svg>