<svg xmlns="http://www.w3.org/2000/svg" xmlns:xlink="http://www.w3.org/1999/xlink" viewBox="0 0 256 137.5"><defs><path id="a" d="M0 0h256v137.5H0z"/></defs><clipPath id="b"><use xlink:href="#a" overflow="visible"/></clipPath><path clip-path="url(#b)" fill-rule="evenodd" clip-rule="evenodd" fill="#3B4552" d="M33 0h207c4.4 0 8.4 1.8 11.3 4.7 2.9 2.9 4.7 6.9 4.7 11.3v95c0 3.3-2.7 6-6 6h-12.3v-.5c0-8.2-3.3-16.1-9.1-21.9-5.8-5.8-13.7-9.1-21.9-9.1s-16.1 3.3-21.9 9.1l-.2.2-.2-.2c-5.8-5.8-13.7-9.1-21.9-9.1s-16.1 3.3-21.9 9.1c-5.8 5.8-9.1 13.7-9.1 21.9v.5H93.3v-.5c0-8.2-3.3-16.1-9.1-21.9-5.8-5.8-13.7-9.1-21.9-9.1s-16.1 3.3-21.9 9.1c-5.8 5.8-9.1 13.7-9.1 21.9v.5H6c-3.3 0-6-2.7-6-6V81c0-2.8.2-5.4.6-8 .4-2.6 1-5.2 1.8-7.9l14.9-50.7c1-3.4 2.5-6.7 4.8-9.2C24.7 2 28.3 0 33 0m205 50.6V16c0-1.1-.5-2.1-1.2-2.8-.7-.7-1.7-1.2-2.8-1.2h-45v39.4l49-.8zM12.9 72.2l48.4-17.5L63.4 12H33c-.8 0-1.5.4-2 1-1 1.1-1.7 2.8-2.3 4.7L13.8 68.4c-.4 1.3-.7 2.5-.9 3.8m56.4-18.7l51.7-.9V12H71.4l-2.1 41.5zm59.7-1.1l52-.9V12h-52v40.4zM12 88.7c0-3.3 2.7-6 6-6s6 2.7 6 6v6.1c0 3.3-2.7 6-6 6s-6-2.7-6-6v-6.1z"/><path clip-path="url(#b)" fill="#2B78C2" d="M162.6 95.5c5.8 0 11 2.4 14.8 6.2 3.8 3.8 6.2 9.1 6.2 14.8s-2.4 11-6.2 14.8c-3.8 3.8-9.1 6.2-14.8 6.2-5.8 0-11-2.4-14.8-6.2-3.8-3.8-6.2-9.1-6.2-14.8s2.4-11 6.2-14.8c3.7-3.9 9-6.2 14.8-6.2m5.7 15.3c-1.5-1.5-3.5-2.4-5.7-2.4s-4.3.9-5.7 2.4c-1.5 1.5-2.4 3.5-2.4 5.7s.9 4.2 2.4 5.7 3.5 2.4 5.7 2.4 4.2-.9 5.7-2.4 2.4-3.5 2.4-5.7c-.1-2.2-1-4.3-2.4-5.7m38.4-15.3c5.8 0 11 2.3 14.8 6.2 3.8 3.8 6.2 9.1 6.2 14.8s-2.3 11-6.2 14.8c-3.8 3.8-9 6.2-14.8 6.2-5.8 0-11-2.4-14.8-6.2-3.8-3.8-6.2-9.1-6.2-14.8s2.4-11 6.2-14.8c3.8-3.9 9-6.2 14.8-6.2m5.7 15.3c-1.5-1.5-3.5-2.4-5.7-2.4s-4.2.9-5.7 2.4-2.4 3.5-2.4 5.7.9 4.2 2.4 5.7 3.5 2.4 5.7 2.4 4.3-.9 5.7-2.4c1.5-1.5 2.4-3.5 2.4-5.7s-.9-4.3-2.4-5.7M62.3 95.5c5.8 0 11 2.3 14.8 6.2 3.8 3.8 6.2 9.1 6.2 14.8s-2.3 11-6.2 14.8c-3.8 3.8-9 6.2-14.8 6.2-5.8 0-11-2.4-14.8-6.2-3.8-3.8-6.2-9.1-6.2-14.8s2.4-11 6.2-14.8 9-6.2 14.8-6.2m5.7 15.3c-1.5-1.5-3.5-2.4-5.7-2.4s-4.2.9-5.7 2.4-2.4 3.5-2.4 5.7.9 4.2 2.4 5.7 3.5 2.4 5.7 2.4 4.3-.9 5.7-2.4c1.5-1.5 2.4-3.5 2.4-5.7s-1-4.3-2.4-5.7"/></svg>