<svg xmlns="http://www.w3.org/2000/svg" viewBox="0 0 23 25"><path d="M10.9 12.8s.1 0 .1.1c0 0 .1 0 .1.1.1 0 .2.1.4.1.1 0 .2 0 .3-.1 0 0 .1 0 .1-.1 0 0 .1 0 .1-.1l5.4-4c.4-.3.5-1 .2-1.4-.3-.5-.9-.6-1.4-.2L12.4 10V1c0-.6-.4-1-1-1s-1 .5-1 1v9L6.7 7.1c-.4-.3-1.1-.2-1.4.2-.3.5-.2 1.1.2 1.5l5.4 4zM23 15.7c0-.1 0-.2-.1-.3 0-.1-.1-.1-.1-.2 0 0 0-.1-.1-.1l-4-4.3c-.4-.4-1-.4-1.4 0-.4.4-.4 1 0 1.4l2.4 2.5h-4.1c-.6 0-1 .5-1 1v1.4h-6v-1.4c0-.6-.4-1-1-1H3.4l2.4-2.5c.4-.4.4-1.1 0-1.4-.4-.4-1-.4-1.4 0l-4 4.3v.1c-.1.1-.1.2-.2.3V23c0 .6.4 1 1 1h21c.6 0 1-.5 1-1v-7.2l-.2-.1c0 .1 0 0 0 0zM21 22H2v-5.2h4.5v.4c0 1.1.9 2 2 2h6c1.1 0 2-.9 2-2v-.4H21V22z"/></svg>