<svg xmlns="http://www.w3.org/2000/svg" xmlns:xlink="http://www.w3.org/1999/xlink" viewBox="0 0 22.8 23.2"><defs><path id="a" d="M0 0h22.8v23.2H0z"/></defs><clipPath id="b"><use xlink:href="#a" overflow="visible"/></clipPath><path clip-path="url(#b)" d="M10 19.9c-5.5 0-10-4.5-10-10C0 4.5 4.5 0 10 0s10 4.5 10 10c-.1 5.5-4.5 9.9-10 9.9M10 2c-4.4 0-8 3.6-8 8s3.6 8 8 8 8-3.6 8-8c-.1-4.4-3.6-8-8-8"/><path clip-path="url(#b)" d="M4.4 10h-1c0-3.6 3-6.6 6.6-6.6v1c-3.1 0-5.6 2.5-5.6 5.6m17.4 13.2c-.3 0-.5-.1-.7-.3l-5.6-5.6c-.4-.4-.4-1 0-1.4.4-.4 1-.4 1.4 0l5.6 5.6c.4.4.4 1 0 1.4-.1.2-.4.3-.7.3"/></svg>