<svg xmlns="http://www.w3.org/2000/svg" xmlns:xlink="http://www.w3.org/1999/xlink" viewBox="0 0 240 220"><defs><path id="a" d="M0 0h240v220H0z"/></defs><clipPath id="b"><use xlink:href="#a" overflow="visible"/></clipPath><path clip-path="url(#b)" fill-rule="evenodd" clip-rule="evenodd" fill="#3B4552" d="M120 0c66.3 0 120 53.7 120 120 0 41.7-21.3 78.4-53.6 100l-12.5-24.7-9.8 1.6 11.3 23H64.6l11.3-23-9.8-1.7L53.6 220C21.3 198.4 0 161.7 0 120 0 53.7 53.7 0 120 0m63.6 63.3v94.2c0 2.4-1.9 4.3-4.2 4.5H60.5c-2.3 0-4.1-2.1-4.1-4.4V63.4c0-27.3 127.2-27.3 127.2-.1m-20.4 72.8c4.9 0 8.9 4 8.9 8.9s-4 8.9-8.9 8.9-8.9-4-8.9-8.9c-.1-4.9 3.9-8.9 8.9-8.9m-86.4 0c4.9 0 8.9 4 8.9 8.9s-4 8.9-8.9 8.9-8.9-4-8.9-8.9 4-8.9 8.9-8.9m-15.4 33.8h9.5c0 3.3 2.7 6 6 6s6-2.7 6-6h13.2v.1c0 3.3 2.7 6 6 6h36c3.3 0 6-2.7 6-6v-.1h13.2c0 3.3 2.7 6 6 6s6-2.7 6-6h9.6c2.6 0 4.8 1.8 4.8 4.4v7.9c0 2.3-1.8 4.2-4.1 4.4l-31.7 5.1-57.4-.1-30.4-5c-2.2-.4-3.7-2.2-3.7-4.4v-7.9c0-2.6 2.3-4.7 5-4.4M102 63c-3.3 0-6-2.7-6-6s2.7-6 6-6h36c3.3 0 6 2.7 6 6s-2.7 6-6 6h-36z"/><path clip-path="url(#b)" fill-rule="evenodd" clip-rule="evenodd" fill="#2B78C2" d="M172.1 126V75.1c0-2.3-1.8-4.3-4.1-4.5-30.2-2.3-65.7-2.3-95.9 0-2.3.2-4.1 2.1-4.1 4.5V126c-.1 3.8 104.1 4.5 104.1 0m-8-47.5c-29-2.1-59.2-2.1-88.2 0v41.3l88.2-41.3z"/></svg>