<svg xmlns="http://www.w3.org/2000/svg" xmlns:xlink="http://www.w3.org/1999/xlink" viewBox="0 0 256 181.8"><defs><path id="a" d="M0 0h256v181.8H0z"/></defs><clipPath id="b"><use xlink:href="#a" overflow="visible"/></clipPath><path clip-path="url(#b)" fill="#2B78C2" d="M130.6 1l35.2 29.9c1.7 1.4 1.9 3.9.5 5.6-.2.2-.3.4-.5.5l-24.5 20.8H129l28.2-23.9L128 9.2 98.9 33.9l28.2 23.9h-12.3L90.2 37c-1.7-1.4-1.9-3.9-.5-5.6.2-.2.3-.4.5-.5L125.4 1c1.6-1.3 3.8-1.3 5.2 0M147 129.2l-9 5.7v-9.5l9-5.7v9.5zm-38-9.5c.1 0 .1.1.2.1l8.8 5.6v9.5c-.1 0-.1-.1-.2-.1l-8.8-5.6v-9.5z"/><path clip-path="url(#b)" fill="#3B4552" d="M21 68.1h214c4.4 0 8 1.7 10.8 4.5 2.8 2.8 4.5 6.6 5.1 10.7 1.9 14 3.1 26.3 3.9 38 .8 11.9 1.1 23.8 1.1 37.8 0 3.3-2.7 6-6 6h-6.2c-.3 4.5-2.3 8.5-5.2 11.4-3.3 3.3-7.8 5.3-12.7 5.3-5 0-9.5-2-12.7-5.3-.4-.4-.9-.9-1.3-1.4-.4.5-.8 1-1.3 1.4-3.3 3.3-7.8 5.3-12.7 5.3-5 0-9.5-2-12.7-5.3-3-3-4.9-7-5.2-11.4H76.1c-.3 4.5-2.3 8.5-5.2 11.4-3.3 3.3-7.8 5.3-12.7 5.3-5 0-9.5-2-12.7-5.3-.5-.4-.9-.9-1.3-1.4-.4.5-.8 1-1.3 1.4-3.3 3.3-7.8 5.3-12.7 5.3-5 0-9.5-2-12.7-5.3-3-3-4.9-7-5.2-11.4H6c-3.3 0-6-2.7-6-6 0-14 .3-25.8 1.1-37.7.8-11.8 2.1-24 3.9-38 .6-4.1 2.3-7.9 5.1-10.7 2.9-2.9 6.5-4.6 10.9-4.6m111 87h21v-77h-21v77zm-8-77h-21v77h21v-77zm37 2v36h38l-1.5-36H161zm-66 36v-36H58.4l-1.5 36H95zm110.5-36l1.5 36h35.4c-.8-9.6-1.9-20-3.4-31.2-.2-1.5-.8-2.9-1.7-3.8-.6-.6-1.4-1-2.3-1h-29.5zM49 116.1l1.5-36H21c-.9 0-1.7.4-2.3 1-.9.9-1.5 2.3-1.7 3.8-1.5 11.2-2.6 21.6-3.4 31.2H49z"/></svg>